<svg width="29" height="38" viewBox="0 0 29 38" fill="none" xmlns="http://www.w3.org/2000/svg">
<path d="M28.3064 10.2368L19.0852 1.01564C18.8185 0.748933 18.4582 0.599976 18.0822 0.599976H3.18647C1.61887 0.599976 0.349182 1.86966 0.349182 3.43726V34.6474C0.349182 36.215 1.61887 37.4847 3.18647 37.4847H25.8848C27.4524 37.4847 28.7221 36.215 28.7221 34.6474V11.2398C28.7221 10.8639 28.5731 10.5035 28.3064 10.2368ZM18.7916 27.5542H7.4424C6.65931 27.5542 6.02376 26.9187 6.02376 26.1356C6.02376 25.3525 6.65931 24.7169 7.4424 24.7169H18.7916C19.5746 24.7169 20.2102 25.3525 20.2102 26.1356C20.2102 26.9187 19.5746 27.5542 18.7916 27.5542ZM21.6288 21.8796H7.4424C6.65931 21.8796 6.02376 21.2441 6.02376 20.461C6.02376 19.6779 6.65931 19.0423 7.4424 19.0423H21.6288C22.4119 19.0423 23.0475 19.6779 23.0475 20.461C23.0475 21.2441 22.4119 21.8796 21.6288 21.8796ZM18.7916 11.9491C18.0085 11.9491 17.3729 11.3136 17.3729 10.5305V3.30107L26.021 11.9491H18.7916Z" fill="#6E6E6E"/>
</svg>
