<svg width="38" height="32" viewBox="0 0 38 32" fill="none" xmlns="http://www.w3.org/2000/svg">
<path d="M3.56611 0.0288086C1.99851 0.0288086 0.728821 1.2985 0.728821 2.8661V7.12203H16.3339H37.6136V5.70338C37.6136 4.13578 36.3439 2.8661 34.7763 2.8661H13.7792L12.9037 1.40589C12.3915 0.551867 11.4682 0.0288086 10.4709 0.0288086H3.56611ZM2.14746 9.95932C1.36437 9.95932 0.728821 10.5949 0.728821 11.378V28.4017C0.728821 29.9693 1.99851 31.239 3.56611 31.239H34.7763C36.3439 31.239 37.6136 29.9693 37.6136 28.4017V11.378C37.6136 10.5949 36.978 9.95932 36.1949 9.95932H2.14746Z" fill="#6E6E6E"/>
</svg>
