<svg width="818" height="818" viewBox="0 0 818 818" fill="none" xmlns="http://www.w3.org/2000/svg">
<g filter="url(#filter0_d_644_2220)">
<rect x="34" y="16" width="770" height="770" rx="24" fill="white"/>
<path d="M146.88 706.025H448.082H631.366C651.034 706.025 670.214 699.884 686.246 688.454L706.424 674.068C748.21 644.277 749.465 582.462 708.921 550.989C669.382 520.296 669.404 460.399 708.966 429.734L723.114 418.768C764.319 386.83 770.091 326.622 735.71 287.39L671.308 213.902C626.657 162.95 547.894 161.892 501.898 211.624C460.617 256.259 391.743 260.683 345.125 221.696L330.101 209.13C293.593 178.598 243.384 170.498 199.177 188.008C134.598 213.587 101.467 285.578 123.944 351.485L152.793 436.079C166.726 476.933 147.555 521.735 108.437 539.739C78.6568 553.444 59.5664 583.303 59.5664 616.174V618.424C59.5664 666.805 98.6579 706.025 146.88 706.025Z" fill="#E7EBFF"/>
<path d="M403.65 112.858C403.65 104.027 410.809 96.8679 419.64 96.8679H761.551C770.382 96.8679 777.541 104.027 777.541 112.858V454.769C777.541 463.6 770.382 470.759 761.551 470.759H419.64C410.809 470.759 403.65 463.6 403.65 454.769V112.858Z" fill="white"/>
<path fill-rule="evenodd" clip-rule="evenodd" d="M401.253 112.858C401.253 102.703 409.485 94.4712 419.64 94.4712H761.55C771.705 94.4712 779.938 102.703 779.938 112.858V454.769C779.938 464.923 771.705 473.156 761.55 473.156H419.64C409.485 473.156 401.253 464.923 401.253 454.769V112.858ZM419.64 99.2647C412.133 99.2647 406.047 105.351 406.047 112.858V454.769C406.047 462.276 412.133 468.362 419.64 468.362H761.55C769.058 468.362 775.144 462.276 775.144 454.769V112.858C775.144 105.351 769.058 99.2647 761.55 99.2647H419.64Z" fill="#032068"/>
<path d="M403.65 112.858C403.65 104.027 410.809 96.8679 419.64 96.8679H761.551C770.382 96.8679 777.541 104.027 777.541 112.858V151.993H403.65V112.858Z" fill="#032068"/>
<path d="M454.238 124.823C454.238 131.439 448.874 136.803 442.257 136.803C435.64 136.803 430.276 131.439 430.276 124.823C430.276 118.206 435.64 112.842 442.257 112.842C448.874 112.842 454.238 118.206 454.238 124.823Z" fill="white"/>
<path d="M494.177 124.823C494.177 131.439 488.813 136.803 482.196 136.803C475.579 136.803 470.215 131.439 470.215 124.823C470.215 118.206 475.579 112.842 482.196 112.842C488.813 112.842 494.177 118.206 494.177 124.823Z" fill="white"/>
<path d="M534.107 124.823C534.107 131.439 528.743 136.803 522.126 136.803C515.509 136.803 510.145 131.439 510.145 124.823C510.145 118.206 515.509 112.842 522.126 112.842C528.743 112.842 534.107 118.206 534.107 124.823Z" fill="white"/>
<path d="M385.229 303.94C382.93 310.357 387.699 318.099 390.371 321.167L371.082 343.47C369.767 343.4 366.542 337.821 360.668 336.319C354.794 334.816 349.549 330.441 343.147 323.238C342.033 321.362 337.134 315.326 337.849 308.923C338.562 302.52 350.762 288.783 357.536 287.327C362.955 286.163 372.154 293.931 375.254 298.436C376.581 294.29 378.57 291.933 382.471 287.888C385.211 285.997 390.083 285.684 391.116 288.836C391.815 290.972 391.098 293.312 389.594 294.989C387.459 297.369 386.765 299.654 385.229 303.94Z" fill="#EFCB96"/>
<path d="M564.335 247.762L559.138 266.723C556.539 276.204 564.335 287.408 585.988 287.408C603.311 287.408 605.91 271.32 605.043 263.276L600.713 241.729C605.043 237.42 608.508 234.834 608.508 214.15C608.508 188.294 594.65 178.813 578.193 178.813C561.736 178.813 547.878 192.588 547.877 217.597C547.877 239.144 559.426 246.039 564.335 247.762Z" fill="#EFCB96"/>
<path d="M579.922 277.928C595.859 277.928 603.886 267.585 605.907 262.414L605.989 262.414C621.298 262.414 646.24 262.414 671.733 285.684C697.272 308.997 718.597 341.706 737.891 399.937C745.448 422.747 746.293 454.273 743.983 466.626H483.01C453.561 466.626 430.204 461.39 422.081 451.47C403.025 428.199 362.468 358.033 364.2 349.415C365.932 340.796 387.584 313.484 393.647 316.07C398.498 318.138 423.096 336.279 448.482 355.477C477.931 277.928 538.347 261.265 558.269 262.414C558.846 267.585 563.985 277.928 579.922 277.928Z" fill="#F4AD5E"/>
<path d="M521.89 229.663C508.725 243.453 509.476 267.585 511.497 277.927C533.695 264.674 550.813 262.117 558.203 262.414C558.203 263.873 559.236 266.877 559.749 266.95L564.332 247.762C555.111 243.873 548.741 236.558 547.875 216.735C547.875 201.269 555.093 190.017 559.135 186.57C572.993 185.708 579.922 202.945 584.253 209.84C587.718 215.356 590.316 214.437 591.182 213.287C595.513 202.945 603.308 202.083 605.04 213.287C606.426 222.251 599.844 226.79 596.379 227.939L605.36 264.643L606.134 263.104C621.595 263.104 642.423 267.928 650.08 271.032C652.678 243.453 631.025 233.972 624.096 216.735C617.166 199.498 626.694 190.879 619.765 179.675C614.629 171.37 605.04 170.194 598.977 168.47C592.914 166.747 589.45 159.852 582.521 156.404C570.395 152.095 558.846 162.725 555.67 170.194C553.649 169.907 547.875 170.711 540.946 176.227C521.025 190.017 538.347 212.426 521.89 229.663Z" fill="#032068"/>
<path d="M660.716 361.54C668.84 399.937 678.196 454.167 676.963 466.626H689.149C689.588 442.587 667.824 374.676 660.716 361.54Z" fill="#032068"/>
<path d="M582.52 246.9C572.127 249.658 566.064 248.624 564.331 247.762L561.733 257.243C572.819 258.622 580.211 250.922 582.52 246.9Z" fill="#032068"/>
<path d="M488.088 350.425C480.777 381.143 476.241 440.692 474.887 466.626H466.764C468.388 424.592 481.657 371.644 488.088 350.425Z" fill="#032068"/>
<path d="M425.129 453.491C451.937 447.024 466.086 450.796 469.809 453.491L467.779 466.627C447.469 466.627 430.883 457.869 425.129 453.491Z" fill="#032068"/>
<path d="M217.443 443.828L213.23 466.017L217.443 489.263C228.324 490.672 250.507 493.49 252.192 493.49C253.877 493.49 266.233 482.923 272.2 477.64L265.882 443.828C283.572 437.911 289.399 411.777 290.101 399.45C294.313 348.731 260.616 342.392 254.298 342.392C247.98 342.392 207.965 342.392 202.7 384.657C198.488 418.469 210.773 438.193 217.443 443.828Z" fill="#EFCB96"/>
<path d="M115.298 705.872H280.623L490.174 704.815C503.141 696.33 506.77 682.64 506.805 671.027C506.834 661.513 499.999 653.859 491.458 649.728C457.525 633.313 406.021 607.911 396.455 601.266C382.766 591.756 370.13 539.981 344.857 499.829C324.639 467.708 286.59 460.382 271.145 460.734C269.741 467.074 263.774 479.754 242.714 479.754C221.653 479.754 212.878 467.074 210.07 460.734C199.189 460.734 169.002 466.651 143.729 490.32C112.161 519.885 98.4685 587.436 85.8395 649.741L85.8132 649.871C75.7041 699.744 101.258 707.281 115.298 705.872Z" fill="#F4AD5E"/>
<path d="M185.85 624.512L201.645 560.057L198.486 624.512L270.412 642.115C279.647 644.375 288.283 650.137 290.031 659.513C293.148 676.238 286.93 694.023 279.569 700.589C285.887 691.517 285.887 657.267 278.516 651.984C272.619 647.757 199.539 634.021 163.737 627.681L185.85 624.512Z" fill="#032068"/>
<path d="M342.752 543.151L381.713 705.872H398.562L342.752 543.151Z" fill="#032068"/>
<path d="M229.022 422.695C224.81 447.209 218.842 449.815 216.385 448.054C186.901 429.035 187.612 368.269 205.855 347.675C222.703 328.655 235.34 336.052 270.09 327.599C304.839 319.146 316.423 333.938 310.104 352.958C301.009 380.337 272.196 365.637 264.824 368.807C257.453 371.977 247.976 380.43 243.764 397.336C239.552 414.242 237.446 411.072 234.287 401.563C231.128 392.053 222.703 378.317 216.385 395.223C211.331 408.748 222.703 419.173 229.022 422.695Z" fill="#032068"/>
<path d="M353.281 705.872C353.281 677.132 310.809 668.538 290.099 667.833C290.099 682.204 281.324 699.18 276.41 705.872H353.281Z" fill="#EFCB96"/>
<path d="M557.95 703.93C557.95 678.383 524.293 672.954 506.137 672.328C506.137 685.102 494.865 697.982 490.556 703.93H557.95Z" fill="#EFCB96"/>
<path fill-rule="evenodd" clip-rule="evenodd" d="M83.5602 667.732C83.0623 688.131 90.1907 705.872 111.942 705.872H131.097C126.043 672.061 99.3068 651.633 86.6701 645.645C86.3926 647.012 86.1159 648.378 85.8396 649.741L85.8132 649.871C84.4663 656.516 83.7525 662.447 83.5602 667.732Z" fill="#032068"/>
<path d="M245.67 443.506C255.477 446.787 262.272 444.873 265.677 443.506L268.836 458.299C255.76 456.659 248.394 447.265 245.67 443.506Z" fill="#032068"/>
<path d="M461.734 550.699L404.99 679.957C402.142 686.446 406.879 693.731 413.947 693.731H587.096C591.072 693.731 594.653 691.317 596.156 687.624L648.762 558.366C651.391 551.908 646.655 544.838 639.701 544.838H470.691C466.811 544.838 463.297 547.137 461.734 550.699Z" fill="white"/>
<path fill-rule="evenodd" clip-rule="evenodd" d="M470.691 546.877C467.617 546.877 464.833 548.698 463.594 551.521L406.851 680.779C404.594 685.92 408.347 691.692 413.947 691.692H587.096C590.246 691.692 593.084 689.78 594.274 686.854L646.88 557.595C648.963 552.479 645.211 546.877 639.701 546.877H470.691ZM459.873 549.877C461.762 545.575 466.005 542.799 470.691 542.799H639.701C648.099 542.799 653.818 551.338 650.644 559.137L598.038 688.395C596.223 692.855 591.898 695.77 587.096 695.77H413.947C405.411 695.77 399.69 686.972 403.13 679.135L459.873 549.877Z" fill="#032068"/>
<path d="M514.621 608.943C517.803 601.54 525.07 596.746 533.106 596.746C547.579 596.746 557.323 611.606 551.592 624.937L550.164 628.26C546.982 635.663 539.715 640.457 531.678 640.457C517.206 640.457 507.461 625.597 513.192 612.266L514.621 608.943Z" fill="#F4AD5E"/>
<path d="M584.377 706.025H283.876C278.988 706.025 275.025 702.05 275.025 697.146C275.025 692.242 278.988 688.267 283.876 688.267H584.377C590.72 688.267 595.004 694.762 592.524 700.618C591.135 703.896 587.928 706.025 584.377 706.025Z" fill="#032068"/>
<path d="M225.486 241.76C221.97 249.009 211.596 251.382 206.848 251.662L206.33 282.382C207.458 283.435 210.45 286.424 213.397 289.956C215.112 292.727 238.04 292.322 249.289 291.773C251.769 291.164 256.918 289.632 257.669 288.383C258.608 286.822 266.23 258.346 261.944 251.419C258.515 245.878 245.056 246.703 238.754 247.809C242.698 242.262 242.445 232.914 241.242 225.635C240.601 221.756 236.422 219.914 232.938 221.648C230.577 222.823 229.196 225.365 229.011 228.022C228.749 231.794 227.835 236.917 225.486 241.76Z" fill="#F4AD5E"/>
<path d="M183.628 247.699C183.623 245.137 185.669 243.056 188.198 243.05L204.714 243.013C207.243 243.008 209.298 245.08 209.304 247.642L209.39 287.482C209.396 290.044 207.35 292.126 204.82 292.132L188.305 292.168C185.776 292.174 183.72 290.102 183.715 287.54L183.628 247.699Z" fill="#032068"/>
<path d="M319.453 144.849L322.253 153.298C322.423 153.812 322.292 154.37 321.914 154.744L317.093 159.509C316.056 160.534 317.093 162.292 318.522 161.932L325.288 160.228C325.782 160.104 326.312 160.249 326.682 160.609L332.219 165.995C333.26 167.008 334.96 166.095 334.637 164.696L332.85 156.957C332.745 156.502 332.867 156.031 333.177 155.692L337.41 151.055C338.364 150.01 337.333 148.342 335.943 148.68L329.908 150.15C329.423 150.268 328.905 150.128 328.538 149.779L321.821 143.407C320.722 142.364 318.981 143.425 319.453 144.849Z" fill="#F4AD5E"/>
<path d="M653.349 610.54C642.606 616.639 658.451 646.128 668.073 660.655C668.414 661.171 669.046 661.389 669.638 661.211L680.76 657.865C681.435 657.662 681.86 656.995 681.75 656.297C677.718 630.728 666.832 602.885 653.349 610.54Z" fill="#032068"/>
<path d="M686.377 531.396C653.738 538.922 662.904 617.694 671.834 657.545C672.013 658.342 672.823 658.791 673.604 658.556L699.911 650.642C700.407 650.492 700.78 650.1 700.885 649.59C709.823 606.513 719.21 523.825 686.377 531.396Z" fill="white"/>
<path fill-rule="evenodd" clip-rule="evenodd" d="M673.205 657.197L699.507 649.284C703.964 627.793 708.519 596.485 707.883 571.54C707.564 559.03 705.941 548.314 702.483 541.239C700.764 537.721 698.64 535.206 696.099 533.77C693.585 532.35 690.51 531.897 686.691 532.778C679.157 534.515 673.889 540.371 670.392 549.199C666.891 558.04 665.264 569.646 664.93 582.383C664.262 607.824 668.757 637.335 673.205 657.197ZM667.767 548.157C671.453 538.854 677.278 532.041 686.064 530.015C690.453 529.003 694.266 529.478 697.489 531.299C700.683 533.104 703.143 536.144 705.02 539.986C708.757 547.632 710.385 558.86 710.707 571.461C711.351 596.728 706.746 628.29 702.268 649.876C702.052 650.917 701.286 651.706 700.313 651.999L674.007 659.913C672.482 660.372 670.824 659.496 670.457 657.858C665.977 637.869 661.429 608.089 662.106 582.315C662.444 569.437 664.087 557.448 667.767 548.157Z" fill="#032068"/>
<path d="M717.284 576.669C697.794 579.648 694.378 627.028 695.037 651.75C695.061 652.676 695.956 653.308 696.841 653.041L711.089 648.754C711.499 648.631 711.826 648.342 711.987 647.944C722.207 622.741 737.099 573.64 717.284 576.669Z" fill="#032068"/>
<path fill-rule="evenodd" clip-rule="evenodd" d="M688.696 563.832L688.968 542.661L686.142 542.63L685.586 585.973L674.719 575.522L672.761 577.571L685.536 589.857L684.988 632.507L675.468 624.543L673.655 626.722L684.941 636.163L684.702 654.79L687.528 654.82L688.016 616.805L699.295 605.717L697.32 603.694L688.067 612.79L688.643 567.983L697.969 558.211L695.93 556.252L688.696 563.832Z" fill="#032068"/>
<path d="M648.914 649.21C648.349 646.562 650.358 644.065 653.053 644.065H717.638C720.273 644.065 722.268 646.459 721.805 649.066L712.305 702.519C711.945 704.548 710.189 706.025 708.138 706.025H664.452C662.456 706.025 660.731 704.624 660.313 702.663L648.914 649.21Z" fill="#F4AD5E"/>
<path d="M697.563 204.528L699.851 215.471C699.991 216.137 699.747 216.819 699.22 217.241L692.518 222.6C691.077 223.753 692.12 226.088 693.956 225.818L702.649 224.542C703.284 224.449 703.926 224.697 704.337 225.196L710.48 232.649C711.635 234.051 713.889 233.122 713.686 231.328L712.562 221.402C712.496 220.82 712.716 220.245 713.151 219.858L719.102 214.585C720.443 213.397 719.394 211.175 717.61 211.423L709.862 212.498C709.24 212.584 708.613 212.343 708.204 211.86L700.727 203.02C699.504 201.575 697.177 202.683 697.563 204.528Z" fill="#F4AD5E"/>
<path d="M112.565 432.101L110.052 435.201C109.899 435.39 109.65 435.48 109.405 435.436L106.299 434.876C105.631 434.755 105.228 435.564 105.744 435.991L108.185 438.01C108.363 438.158 108.447 438.385 108.406 438.608L107.794 441.938C107.679 442.564 108.479 442.952 108.932 442.489L111.439 439.93C111.587 439.78 111.8 439.707 112.013 439.735L114.915 440.116C115.568 440.201 115.938 439.417 115.441 438.999L113.283 437.185C113.11 437.039 113.027 436.817 113.064 436.599L113.745 432.598C113.856 431.944 112.988 431.578 112.565 432.101Z" fill="#F4AD5E"/>
</g>
<defs>
<filter id="filter0_d_644_2220" x="0" y="0" width="818" height="818" filterUnits="userSpaceOnUse" color-interpolation-filters="sRGB">
<feFlood flood-opacity="0" result="BackgroundImageFix"/>
<feColorMatrix in="SourceAlpha" type="matrix" values="0 0 0 0 0 0 0 0 0 0 0 0 0 0 0 0 0 0 127 0" result="hardAlpha"/>
<feOffset dx="-10" dy="8"/>
<feGaussianBlur stdDeviation="12"/>
<feComposite in2="hardAlpha" operator="out"/>
<feColorMatrix type="matrix" values="0 0 0 0 0 0 0 0 0 0 0 0 0 0 0 0 0 0 0.14 0"/>
<feBlend mode="normal" in2="BackgroundImageFix" result="effect1_dropShadow_644_2220"/>
<feBlend mode="normal" in="SourceGraphic" in2="effect1_dropShadow_644_2220" result="shape"/>
</filter>
</defs>
</svg>
