<svg width="43" height="43" viewBox="0 0 43 43" fill="none" xmlns="http://www.w3.org/2000/svg">
<g clip-path="url(#clip0_315_20)">
<path d="M28.1522 0.0559692C27.8103 0.0559692 27.5192 0.298846 27.4568 0.635064L27.1437 2.30308C27.0628 2.73577 26.7202 3.0588 26.2875 3.14817C25.8846 3.23187 25.4875 3.33643 25.1016 3.46127C24.6831 3.59746 24.2272 3.48986 23.9406 3.15648L22.8406 1.87084C22.6179 1.61122 22.2422 1.54956 21.9457 1.72121L21.1255 2.19502C20.8304 2.36526 20.6961 2.72362 20.8096 3.04565L21.3721 4.6444C21.5182 5.05864 21.3839 5.50893 21.0562 5.80259C20.7512 6.07638 20.4628 6.36483 20.189 6.66984C19.8953 6.99755 19.445 7.1346 19.0308 6.98848L17.4293 6.42324C17.1072 6.30975 16.7516 6.44262 16.5814 6.73911L16.1048 7.56204C15.9346 7.85711 15.999 8.23427 16.2572 8.457L16.3958 8.57615C18.074 8.60452 19.5098 9.80498 19.8205 11.4605L19.9064 11.9122L20.2028 11.5631C20.854 10.8055 21.7656 10.3936 22.7076 10.3439C23.9787 8.42165 26.1533 7.14919 28.6288 7.14919C32.5457 7.14919 35.722 10.3255 35.722 14.2424C35.722 16.7179 34.4496 18.8925 32.5273 20.1608C32.4776 21.1028 32.0657 22.0159 31.3082 22.6656L30.959 22.9621L31.4107 23.048C33.0662 23.3587 34.2667 24.7944 34.2951 26.4727L34.4142 26.6112C34.6369 26.8708 35.0127 26.9353 35.3092 26.7636L36.1321 26.287C36.4272 26.1168 36.5615 25.7612 36.448 25.4392L35.8827 23.8377C35.7366 23.4234 35.8737 22.9731 36.2014 22.6795C36.5064 22.4057 36.7948 22.1172 37.0686 21.8122C37.3623 21.4845 37.8126 21.3502 38.2268 21.4963L39.8256 22.0588C40.1476 22.1723 40.506 22.0394 40.6762 21.7429L41.15 20.92C41.3202 20.6249 41.2586 20.2505 41.0004 20.0278L39.7147 18.925C39.3813 18.6385 39.2737 18.1826 39.4099 17.7641C39.5348 17.3782 39.6393 16.9839 39.723 16.581C39.8124 16.1497 40.1354 15.8071 40.5681 15.7248L42.2361 15.4089C42.5724 15.3507 42.8152 15.0609 42.8152 14.719V13.7658C42.8152 13.4239 42.5724 13.1328 42.2361 13.0704L40.5681 12.7573C40.1354 12.6764 39.8124 12.3338 39.723 11.9011C39.6393 11.4982 39.5348 11.1011 39.4099 10.7152C39.2737 10.2967 39.3813 9.8408 39.7147 9.55423L41.0004 8.45423C41.26 8.2315 41.3217 7.85576 41.15 7.55927L40.6762 6.73911C40.506 6.44403 40.1476 6.30975 39.8256 6.42324L38.2268 6.98571C37.8126 7.13183 37.3623 6.99755 37.0686 6.66984C36.7948 6.36483 36.5064 6.07638 36.2014 5.80259C35.8737 5.50893 35.7366 5.05864 35.8827 4.6444L36.448 3.04288C36.5615 2.72085 36.4286 2.36526 36.1321 2.19502L35.3092 1.71844C35.0141 1.54821 34.6369 1.61264 34.4142 1.87084L33.3142 3.15648C33.0276 3.48986 32.5717 3.59746 32.1532 3.46127C31.7674 3.33643 31.3702 3.23187 30.9673 3.14817C30.5361 3.0588 30.1935 2.73299 30.1112 2.30031L29.7981 0.632293C29.7385 0.297493 29.4473 0.0559692 29.1054 0.0559692H28.1522ZM15.3844 11.4051C15.0425 11.4051 14.7514 11.6466 14.689 11.9814L14.4257 13.3835C14.3165 13.9665 13.852 14.3962 13.2703 14.5139C12.7866 14.6118 12.3114 14.7362 11.8489 14.888C11.2871 15.0724 10.6706 14.9345 10.2862 14.4862L9.3635 13.4084C9.14078 13.1502 8.76362 13.0885 8.46854 13.2588L7.64839 13.7326C7.35189 13.9028 7.21902 14.2612 7.33252 14.5832L7.80909 15.9326C8.00486 16.4915 7.81805 17.0926 7.37685 17.487C7.01226 17.8133 6.66544 18.1587 6.34057 18.5233C5.94619 18.9645 5.34511 19.1513 4.78616 18.9555L3.43402 18.4817C3.11198 18.3682 2.75639 18.5025 2.58615 18.7976L2.10958 19.6177C1.93792 19.9142 2.00236 20.29 2.26197 20.5127L3.33981 21.4354C3.7881 21.8198 3.926 22.4363 3.74157 22.9981C3.58978 23.4606 3.4654 23.9358 3.36752 24.4195C3.24977 25.0012 2.8201 25.4657 2.23703 25.5749L0.835015 25.8382C0.498797 25.9006 0.25592 26.1917 0.25592 26.5336V27.4868C0.25592 27.8287 0.497445 28.1198 0.832245 28.1822L2.23426 28.4455C2.81733 28.5547 3.247 29.0192 3.36475 29.6009C3.46263 30.0861 3.58701 30.5598 3.7388 31.0223C3.92323 31.5841 3.78533 32.2006 3.33704 32.585L2.2592 33.5077C2.00101 33.7304 1.93934 34.1076 2.10958 34.4027L2.58338 35.2228C2.75362 35.5193 3.11198 35.6522 3.43402 35.5387L4.78339 35.0621C5.34234 34.8663 5.94342 35.0532 6.3378 35.4944C6.66409 35.859 7.00949 36.2058 7.37408 36.5306C7.81528 36.925 8.00209 37.5261 7.80632 38.085L7.33252 39.4372C7.21902 39.7592 7.35331 40.1148 7.64839 40.2851L8.46854 40.7616C8.76504 40.9333 9.14078 40.8688 9.3635 40.6092L10.2862 39.5314C10.6706 39.0831 11.2871 38.9452 11.8489 39.1296C12.3114 39.2814 12.7866 39.4058 13.2703 39.5037C13.852 39.6214 14.3165 40.0511 14.4257 40.6342L14.689 42.0362C14.7514 42.3724 15.0425 42.6153 15.3844 42.6153H16.3376C16.6795 42.6153 16.9707 42.3723 17.0303 42.039L17.2935 40.6369C17.4027 40.0539 17.8673 39.6242 18.4489 39.5065C18.9341 39.4086 19.4079 39.2842 19.8703 39.1324C20.4321 38.948 21.0486 39.0859 21.4331 39.5342L22.3557 40.612C22.5785 40.8702 22.9528 40.9346 23.2479 40.7644L24.0709 40.2878C24.3673 40.1176 24.5002 39.762 24.3867 39.44L23.9129 38.0878C23.7171 37.5289 23.904 36.9278 24.3452 36.5334C24.7098 36.2071 25.0566 35.8617 25.3814 35.4971C25.7758 35.0559 26.3783 34.8691 26.9358 35.0649L28.288 35.5387C28.61 35.6522 28.9656 35.5179 29.1359 35.2228L29.6124 34.4027C29.7841 34.1062 29.7196 33.7304 29.46 33.5077L28.3822 32.585C27.9339 32.2006 27.796 31.5841 27.9804 31.0223C28.1322 30.5598 28.2566 30.0846 28.3545 29.6009C28.4722 29.0192 28.9019 28.5547 29.485 28.4455L30.887 28.1822C31.2232 28.1198 31.4661 27.8287 31.4661 27.4868V26.5336C31.4661 26.1917 31.2231 25.9019 30.8898 25.8409L29.4877 25.5777C28.9047 25.4685 28.475 25.0012 28.3573 24.4195C28.2594 23.9358 28.135 23.4606 27.9832 22.9981C27.7988 22.4363 27.9367 21.8226 28.385 21.4381L29.4628 20.5155C29.721 20.2927 29.7854 19.9156 29.6152 19.6205L29.1386 18.7976C28.9684 18.5011 28.6128 18.3682 28.2908 18.4817L26.9386 18.9583C26.3797 19.1541 25.7786 18.9672 25.3842 18.526C25.0579 18.1615 24.7125 17.8146 24.3479 17.4898C23.9067 17.0954 23.7199 16.4943 23.9157 15.9354L24.3895 14.5832C24.503 14.2612 24.3687 13.9056 24.0736 13.7354L23.2535 13.2588C22.957 13.0871 22.5812 13.1516 22.3585 13.4112L21.4358 14.489C21.0514 14.9373 20.4349 15.0752 19.8731 14.8908C19.4106 14.739 18.9354 14.6146 18.4517 14.5167C17.87 14.399 17.4055 13.9693 17.2963 13.3862L17.033 11.9842C16.9706 11.648 16.6795 11.4051 16.3376 11.4051H15.3844ZM28.6288 12.8238C28.2526 12.8238 27.8917 12.9732 27.6257 13.2393C27.3596 13.5053 27.2102 13.8662 27.2102 14.2424C27.2102 14.6187 27.3596 14.9795 27.6257 15.2455C27.8917 15.5116 28.2526 15.6611 28.6288 15.6611C29.005 15.6611 29.3659 15.5116 29.6319 15.2455C29.898 14.9795 30.0474 14.6187 30.0474 14.2424C30.0474 13.8662 29.898 13.5053 29.6319 13.2393C29.3659 12.9732 29.005 12.8238 28.6288 12.8238ZM15.861 18.4983C20.5624 18.4983 24.3729 22.3088 24.3729 27.0102C24.3729 31.7116 20.5624 35.5221 15.861 35.5221C11.1596 35.5221 7.34914 31.7116 7.34914 27.0102C7.34914 22.3088 11.1596 18.4983 15.861 18.4983ZM15.861 24.1729C14.2934 24.1729 13.0237 25.4426 13.0237 27.0102C13.0237 28.5778 14.2934 29.8475 15.861 29.8475C17.4286 29.8475 18.6983 28.5778 18.6983 27.0102C18.6983 25.4426 17.4286 24.1729 15.861 24.1729Z" fill="#6E6E6E"/>
</g>
<defs>
<clipPath id="clip0_315_20">
<rect width="42.5593" height="42.5593" fill="white" transform="translate(0.25592 0.0559692)"/>
</clipPath>
</defs>
</svg>
