<svg width="32" height="37" viewBox="0 0 32 37" fill="none" xmlns="http://www.w3.org/2000/svg">
<path d="M28.3966 0H0.0236816V36.8847H28.3966C29.9642 36.8847 31.2339 35.6151 31.2339 34.0475V2.83729C31.2339 1.26969 29.9642 0 28.3966 0ZM7.1169 26.9542C7.1169 21.5747 12.7915 23.1125 13.5008 20.8073V19.2709C13.1816 19.0992 12.2694 17.9217 12.1729 17.0024C11.9218 16.9812 11.5275 16.7315 11.4111 15.7455C11.3487 15.2164 11.597 14.9185 11.7474 14.8248C11.7474 14.8248 11.3728 13.9708 11.3728 13.1239C11.3728 10.6029 12.6198 8.51186 15.6288 8.51186C17.2531 8.51186 17.7567 9.6638 17.7567 9.6638C19.208 9.6638 19.8847 11.2555 19.8847 13.1225C19.8847 14.0531 19.5102 14.8234 19.5102 14.8234C19.6606 14.917 19.9088 15.215 19.8464 15.7441C19.7301 16.7301 19.3357 16.9798 19.0846 17.001C18.9881 17.9203 18.0759 19.0978 17.7567 19.2694V20.8058C18.4661 23.1125 24.1406 21.5747 24.1406 26.9542H7.1169Z" fill="#6E6E6E"/>
</svg>
